<svg width="113" height="78" viewBox="0 0 113 78" fill="none" xmlns="http://www.w3.org/2000/svg">
<path d="M34.006 53.5007L46.7147 14.1032H52.2919L51.1948 21.9384L38.2575 62H32.8174L34.006 53.5007ZM25.4573 14.1032L36.2917 53.9434L37.0689 62H31.3545L17 14.1032H25.4573ZM64.4521 53.6335C64.4521 53.6335 71.2682 27.574 74.7837 14.1032C78.2992 0.632376 98.8997 0.632194 107.441 14.1032C115.983 27.5742 110.456 32.0647 107.441 17.678C104.427 3.29129 83.8261 4.80382 79.8065 17.678C75.7869 30.5521 68.8408 62 68.8408 62H63.1721L64.4521 53.6335ZM53.5262 14.1032L65.9607 52.8367L67.3779 62H61.9835L48.6805 21.8499L47.5833 14.1032H53.5262Z" fill="white"/>
<path d="M99 77H112V64" stroke="white" stroke-width="2" stroke-linecap="round" stroke-linejoin="round"/>
<path d="M14 1L1 1L1 14" stroke="white" stroke-width="2" stroke-linecap="round" stroke-linejoin="round"/>
</svg>
