<svg width="32" height="32" viewBox="0 0 32 32" fill="none" xmlns="http://www.w3.org/2000/svg">
<path d="M28.8571 15.5C28.0734 15.5 27.4624 15.7816 27.0208 16.2313C26.5907 16.6692 26.3484 17.2375 26.2264 17.7829C25.4715 21.1533 22.2832 26.2143 16 26.2143C10.3587 26.2143 5.78571 21.6403 5.78571 16C5.78571 10.3597 10.3587 5.78571 16 5.78571C17.6812 5.78571 19.2609 6.20119 20.6565 6.92857H20.2857C18.8267 6.92857 17.6429 8.11243 17.6429 9.57143C17.6429 11.0304 18.8267 12.2143 20.2857 12.2143H26.7143C28.1733 12.2143 29.3571 11.0304 29.3571 9.57143V3.14286C29.3571 1.68386 28.1733 0.5 26.7143 0.5C25.3759 0.5 24.2691 1.4962 24.0952 2.78715C21.74 1.33751 18.9687 0.5 16 0.5C7.43957 0.5 0.5 7.43957 0.5 16C0.5 24.5604 7.43957 31.5 16 31.5C21.5249 31.5 25.4056 28.8637 27.8917 25.9149C29.1326 24.4431 30.0299 22.8899 30.6183 21.5378C31.1999 20.2013 31.5 19.0138 31.5 18.2768C31.5 17.3664 31.1626 16.6603 30.6427 16.1854C30.1324 15.7193 29.4731 15.5 28.8571 15.5Z" fill="#AAF4EF" stroke="#AAF4EF"/>
</svg>
