<svg width="347" height="69" viewBox="0 0 347 69" fill="none" xmlns="http://www.w3.org/2000/svg">
<path d="M24.2422 25.8828H10.7188V19.3672H45.1953V25.8828H31.6719V56H24.2422V25.8828Z" fill="white"/>
<path d="M50.9609 42.0781C50.9609 40.2031 51.3438 38.4141 52.1094 36.7109C52.875 34.9922 53.9766 33.4766 55.4141 32.1641C56.8516 30.8516 58.6094 29.8047 60.6875 29.0234C62.7812 28.2422 65.1562 27.8516 67.8125 27.8516C70.4531 27.8516 72.8281 28.25 74.9375 29.0469C77.0625 29.8281 78.8594 30.9062 80.3281 32.2812C81.8125 33.6562 82.9453 35.2734 83.7266 37.1328C84.5234 38.9922 84.9219 40.9844 84.9219 43.1094C84.9219 43.375 84.9141 43.6641 84.8984 43.9766C84.8984 44.2734 84.8828 44.5469 84.8516 44.7969H58.6953C58.9922 45.625 59.4688 46.3828 60.125 47.0703C60.7969 47.7578 61.6328 48.3516 62.6328 48.8516C63.6328 49.3516 64.7891 49.7422 66.1016 50.0234C67.4141 50.2891 68.8672 50.4219 70.4609 50.4219C72.0547 50.4219 73.6406 50.2578 75.2188 49.9297C76.7969 49.5859 78.3047 49.1562 79.7422 48.6406L82.0859 53.9375C81.1797 54.3594 80.2578 54.7344 79.3203 55.0625C78.3984 55.375 77.4297 55.6406 76.4141 55.8594C75.4141 56.0625 74.3594 56.2187 73.25 56.3281C72.1562 56.4375 71 56.4922 69.7812 56.4922C66.6719 56.4922 63.9453 56.1172 61.6016 55.3672C59.2578 54.6172 57.2969 53.5937 55.7188 52.2969C54.1406 51 52.9531 49.4766 52.1562 47.7266C51.3594 45.9766 50.9609 44.0937 50.9609 42.0781ZM77.5625 39.3828C77.3125 38.6172 76.9219 37.9062 76.3906 37.25C75.875 36.5781 75.2266 36 74.4453 35.5156C73.6641 35.0156 72.7578 34.625 71.7266 34.3437C70.6953 34.0625 69.5625 33.9219 68.3281 33.9219C67.0156 33.9219 65.8203 34.0703 64.7422 34.3672C63.6641 34.6641 62.7188 35.0625 61.9062 35.5625C61.0938 36.0625 60.4141 36.6406 59.8672 37.2969C59.3359 37.9531 58.9453 38.6484 58.6953 39.3828H77.5625Z" fill="white"/>
<path d="M99.5703 42.1719L88.1328 28.3203H96.9922L103.93 36.7578L110.516 28.3203H119.164L108.406 42.1484L119.844 56H110.984L103.836 47.3516L97.2031 56H88.5547L99.5703 42.1719Z" fill="white"/>
<path d="M128.445 33.5469H121.766V28.3437H128.445V19.7422H135.383V28.3437H142.062V33.5469H135.383V56H128.445V33.5469Z" fill="white"/>
<path d="M237.822 51.5801V35.2617C237.822 34.0117 237.568 32.9277 237.061 32.0098C236.572 31.0723 235.83 30.3496 234.834 29.8418C233.838 29.334 232.607 29.0801 231.143 29.0801C229.775 29.0801 228.574 29.3144 227.539 29.7832C226.523 30.2519 225.723 30.8672 225.137 31.6289C224.57 32.3906 224.287 33.2109 224.287 34.0898H218.867C218.867 32.957 219.16 31.834 219.746 30.7207C220.332 29.6074 221.172 28.6016 222.266 27.7031C223.379 26.7851 224.707 26.0625 226.25 25.5351C227.812 24.9883 229.551 24.7148 231.465 24.7148C233.77 24.7148 235.801 25.1055 237.559 25.8867C239.336 26.668 240.723 27.8496 241.719 29.4316C242.734 30.9941 243.242 32.957 243.242 35.3203V50.0859C243.242 51.1406 243.33 52.2637 243.506 53.4551C243.701 54.6465 243.984 55.6719 244.355 56.5312V57H238.701C238.428 56.375 238.213 55.5449 238.057 54.5098C237.9 53.4551 237.822 52.4785 237.822 51.5801ZM238.76 37.7812L238.818 41.5898H233.34C231.797 41.5898 230.42 41.7168 229.209 41.9707C227.998 42.2051 226.982 42.5664 226.162 43.0547C225.342 43.543 224.717 44.1582 224.287 44.9004C223.857 45.623 223.643 46.4726 223.643 47.4492C223.643 48.4453 223.867 49.3535 224.316 50.1738C224.766 50.9941 225.439 51.6484 226.338 52.1367C227.256 52.6055 228.379 52.8398 229.707 52.8398C231.367 52.8398 232.832 52.4883 234.102 51.7851C235.371 51.082 236.377 50.2226 237.119 49.207C237.881 48.1914 238.291 47.2051 238.35 46.248L240.664 48.8555C240.527 49.6758 240.156 50.584 239.551 51.5801C238.945 52.5762 238.135 53.5332 237.119 54.4512C236.123 55.3496 234.932 56.1016 233.545 56.707C232.178 57.293 230.635 57.5859 228.916 57.5859C226.768 57.5859 224.883 57.166 223.262 56.3262C221.66 55.4863 220.41 54.3633 219.512 52.957C218.633 51.5312 218.193 49.9394 218.193 48.1816C218.193 46.4824 218.525 44.9883 219.189 43.6992C219.854 42.3906 220.811 41.3066 222.061 40.4473C223.311 39.5684 224.814 38.9043 226.572 38.4551C228.33 38.0059 230.293 37.7812 232.461 37.7812H238.76Z" fill="white"/>
<path d="M260.938 52.1074L269.609 25.3008H275.146L263.75 57H260.117L260.938 52.1074ZM253.701 25.3008L262.637 52.2539L263.252 57H259.619L248.135 25.3008H253.701Z" fill="white"/>
<path d="M293.105 57.5859C290.898 57.5859 288.896 57.2148 287.1 56.4726C285.322 55.7109 283.789 54.6465 282.5 53.2793C281.23 51.9121 280.254 50.291 279.57 48.416C278.887 46.541 278.545 44.4902 278.545 42.2637V41.0332C278.545 38.4551 278.926 36.1601 279.688 34.1484C280.449 32.1172 281.484 30.3984 282.793 28.9922C284.102 27.5859 285.586 26.5215 287.246 25.7988C288.906 25.0762 290.625 24.7148 292.402 24.7148C294.668 24.7148 296.621 25.1055 298.262 25.8867C299.922 26.668 301.279 27.7617 302.334 29.168C303.389 30.5547 304.17 32.1953 304.678 34.0898C305.186 35.9648 305.439 38.0156 305.439 40.2422V42.6738H281.768V38.25H300.02V37.8398C299.941 36.4336 299.648 35.0664 299.141 33.7383C298.652 32.4101 297.871 31.3164 296.797 30.457C295.723 29.5976 294.258 29.168 292.402 29.168C291.172 29.168 290.039 29.4316 289.004 29.959C287.969 30.4668 287.08 31.2285 286.338 32.2441C285.596 33.2598 285.02 34.5 284.609 35.9648C284.199 37.4297 283.994 39.1191 283.994 41.0332V42.2637C283.994 43.7676 284.199 45.1836 284.609 46.5117C285.039 47.8203 285.654 48.9726 286.455 49.9687C287.275 50.9648 288.262 51.7461 289.414 52.3125C290.586 52.8789 291.914 53.1621 293.398 53.1621C295.312 53.1621 296.934 52.7715 298.262 51.9902C299.59 51.209 300.752 50.1641 301.748 48.8555L305.029 51.4629C304.346 52.498 303.477 53.4844 302.422 54.4219C301.367 55.3594 300.068 56.1211 298.525 56.707C297.002 57.293 295.195 57.5859 293.105 57.5859Z" fill="white"/>
<path d="M330.588 48.5918C330.588 47.8105 330.412 47.0879 330.061 46.4238C329.729 45.7402 329.035 45.125 327.98 44.5781C326.945 44.0117 325.383 43.5234 323.293 43.1133C321.535 42.7422 319.943 42.3027 318.518 41.7949C317.111 41.2871 315.91 40.6719 314.914 39.9492C313.938 39.2266 313.186 38.3769 312.658 37.4004C312.131 36.4238 311.867 35.2812 311.867 33.9726C311.867 32.7226 312.141 31.541 312.688 30.4277C313.254 29.3144 314.045 28.3281 315.061 27.4687C316.096 26.6094 317.336 25.9355 318.781 25.4473C320.227 24.959 321.838 24.7148 323.615 24.7148C326.154 24.7148 328.322 25.1641 330.119 26.0625C331.916 26.9609 333.293 28.1621 334.25 29.666C335.207 31.1504 335.686 32.8008 335.686 34.6172C335.686 34.6172 334.774 39.1055 333.5 36C332.226 32.8945 331.027 33.5 331.027 33.5C329.914 33.5 330.002 32.8887 329.475 32.0684C328.967 31.2285 328.215 30.5351 327.219 29.9883C326.242 29.4414 325.041 29.168 323.615 29.168C322.111 29.168 320.891 29.4023 319.953 29.8711C319.035 30.3203 318.361 30.8965 317.932 31.5996C317.521 32.3027 317.316 33.0449 317.316 33.8262C317.316 34.4121 317.414 34.9394 317.609 35.4082C317.824 35.8574 318.195 36.2773 318.723 36.668C319.25 37.0391 319.992 37.3906 320.949 37.7226C321.906 38.0547 323.127 38.3867 324.611 38.7187C327.209 39.3047 329.348 40.0078 331.027 40.8281C332.707 41.6484 333.957 42.6543 334.777 43.8457C335.598 45.0371 336.008 46.4824 336.008 48.1816C336.008 49.5684 335.715 50.8379 335.129 51.9902C334.562 53.1426 333.732 54.1387 332.639 54.9785C331.564 55.7988 330.275 56.4434 328.771 56.9121C327.287 57.3613 325.617 57.5859 323.762 57.5859C320.969 57.5859 318.605 57.0879 316.672 56.0918C314.738 55.0957 313.273 53.8066 312.277 52.2246C311.281 50.6426 310.783 48.9726 310.783 47.2148H316.232C316.311 48.6992 316.74 49.8809 317.521 50.7598C318.303 51.6191 319.26 52.2344 320.393 52.6055C321.525 52.957 322.648 53.1328 323.762 53.1328C325.246 53.1328 326.486 52.9375 327.482 52.5469C328.498 52.1562 329.27 51.6191 329.797 50.9355C330.324 50.2519 330.588 49.4707 330.588 48.5918Z" fill="white"/>
<path d="M171.006 49.5007L183.715 10.1032H189.292L188.195 17.9384L175.257 58H169.817L171.006 49.5007ZM162.457 10.1032L173.292 49.9434L174.069 58H168.354L154 10.1032H162.457ZM201.452 49.6335C201.452 49.6335 208.268 23.574 211.784 10.1032C215.299 -3.36763 235.9 -3.36781 244.441 10.1032C252.983 23.5742 247.456 28.0647 244.441 13.678C241.427 -0.708718 220.826 0.80381 216.807 13.678C212.787 26.5521 205.841 58 205.841 58H200.172L201.452 49.6335ZM190.526 10.1032L202.961 48.8367L204.378 58H198.984L185.68 17.8499L184.583 10.1032H190.526Z" fill="white"/>
<path d="M333 68H346V55" stroke="white" stroke-width="2" stroke-linecap="round" stroke-linejoin="round"/>
<path d="M14 9L1 9L1 22" stroke="white" stroke-width="2" stroke-linecap="round" stroke-linejoin="round"/>
</svg>
